<svg width="187" height="70" viewBox="0 0 187 70" fill="none" xmlns="http://www.w3.org/2000/svg">
<path fill-rule="evenodd" clip-rule="evenodd" d="M33.1612 8.16667C19.1201 8.16667 7.73761 20.1804 7.73761 35C7.73761 49.8196 19.1201 61.8333 33.1612 61.8333C39.8042 61.8333 45.8446 59.1496 50.3761 54.746C51.948 53.2185 54.3955 53.3251 55.8428 54.9842C57.2901 56.6433 57.189 59.2265 55.6171 60.754C49.7134 66.491 41.8211 70 33.1612 70C14.8468 70 0 54.33 0 35C0 15.67 14.8468 0 33.1612 0C41.8211 0 49.7134 3.50898 55.6171 9.24601C57.189 10.7735 57.2901 13.3567 55.8428 15.0158C54.3955 16.6749 51.948 16.7815 50.3761 15.254C45.8446 10.8504 39.8042 8.16667 33.1612 8.16667Z" fill="white"/>
<path d="M87.6203 32.6358C86.0341 32.6358 84.714 32.0962 83.6599 31.0169C82.6059 29.9264 82.0789 28.5268 82.0789 26.8179C82.0789 25.0978 82.6008 23.6982 83.6446 22.6189C84.6986 21.5396 86.0238 21 87.6203 21C89.6772 21 91.1661 22.0062 92.0871 24.0186L89.8153 25.199C89.6414 24.7381 89.3497 24.3502 88.9404 24.0354C88.5413 23.7206 88.1012 23.5633 87.6203 23.5633C86.7913 23.5633 86.1057 23.878 85.5633 24.5076C85.0312 25.1259 84.7651 25.896 84.7651 26.8179C84.7651 27.7398 85.0312 28.5155 85.5633 29.1451C86.1057 29.7634 86.7913 30.0726 87.6203 30.0726C88.1012 30.0726 88.5413 29.9152 88.9404 29.6004C89.3497 29.2856 89.6414 28.8978 89.8153 28.4368L92.0871 29.6173C91.6983 30.4717 91.1354 31.1912 90.3986 31.7758C89.6721 32.3492 88.7459 32.6358 87.6203 32.6358Z" fill="white"/>
<path d="M102.761 32.4335H100.121V23.715H95.8691V32.4335H93.2289V21.1855H102.761V32.4335Z" fill="white"/>
<path d="M112.113 32.4335H104.607V21.1855H112.113V23.715H107.247V25.4688H112.005V27.9984H107.247V29.9039H112.113V32.4335Z" fill="white"/>
<path d="M121.444 34.5077V32.4335H113.646V21.1855H116.286V29.9039H120.538V21.1855H123.178V29.9039H124.099V34.5077H121.444Z" fill="white"/>
<path d="M136.853 32.4335H134.213V25.1147L131.619 32.4335H130.452L127.874 25.1147V32.4335H125.233V21.1855H128.902L131.036 27.2901L133.185 21.1855H136.853V32.4335Z" fill="white"/>
<path d="M146.201 32.4335H138.695V21.1855H146.201V23.715H141.335V25.4688H146.093V27.9984H141.335V29.9039H146.201V32.4335Z" fill="white"/>
<path d="M152.661 32.4335H150.021V23.715H147.151V21.1855H155.516V23.715H152.661V32.4335Z" fill="white"/>
<path d="M165.776 32.4335H162.782L162.276 30.8146H158.239L157.732 32.4335H154.739L158.592 21.1855H161.907L165.776 32.4335ZM161.554 28.285L160.249 24.0523L158.945 28.285H161.554Z" fill="white"/>
<path d="M165.964 32.6358V30.0726C166.475 30.0726 166.875 29.8477 167.161 29.398C167.458 28.9371 167.678 28.0995 167.821 26.8854L168.435 21.1855H176.064V32.4335H173.424V23.715H170.814L170.446 27.1046C170.323 28.2063 170.129 29.1338 169.863 29.8871C169.597 30.6291 169.259 31.1968 168.85 31.5903C168.44 31.9725 168.005 32.2423 167.545 32.3997C167.095 32.5571 166.568 32.6358 165.964 32.6358Z" fill="white"/>
<path d="M87.5282 48.0925H84.8879V39.374H82.0175V36.8445H90.3833V39.374H87.5282V48.0925Z" fill="white"/>
<path d="M94.2802 48.0925H91.6399V36.8445H96.7669C97.8721 36.8445 98.7419 37.2042 99.3764 37.9237C100.011 38.632 100.328 39.5202 100.328 40.5882C100.328 41.645 100.011 42.5331 99.3764 43.2526C98.7419 43.9609 97.8721 44.315 96.7669 44.315H94.2802V48.0925ZM96.4138 41.7855C96.772 41.7855 97.0637 41.6787 97.2888 41.4651C97.5242 41.2515 97.6418 40.9592 97.6418 40.5882C97.6418 40.2059 97.5242 39.908 97.2888 39.6944C97.0637 39.4808 96.772 39.374 96.4138 39.374H94.2802V41.7855H96.4138Z" fill="white"/>
<path d="M109.01 48.0925H101.504V36.8445H109.01V39.374H104.144V41.1278H108.902V43.6574H104.144V45.5629H109.01V48.0925Z" fill="white"/>
<path d="M113.091 48.0925H110.543V36.8445H113.183V43.4718L117.328 36.8445H120.06V48.0925H117.404V41.1447L113.091 48.0925ZM117.988 34.8883C117.322 35.8776 116.427 36.3723 115.301 36.3723C114.186 36.3723 113.285 35.8776 112.6 34.8883L113.613 33.9777C114.053 34.6297 114.616 34.9558 115.301 34.9558C116.018 34.9558 116.575 34.6297 116.974 33.9777L117.988 34.8883Z" fill="white"/>
<path d="M121.338 50.1667V45.7316C121.88 45.6416 122.289 45.3887 122.566 44.9727C122.852 44.5567 123.062 43.7473 123.195 42.5444L123.809 36.8445H131.438V45.5629H132.359V50.1667H129.703V48.0925H123.978V50.1667H121.338ZM125.82 42.7636C125.687 43.9553 125.313 44.8884 124.699 45.5629H128.798V39.374H126.188L125.82 42.7636Z" fill="white"/>
<path fill-rule="evenodd" clip-rule="evenodd" d="M53.0379 21C50.9241 21 49.2104 22.9113 49.2104 25.2689C49.2104 27.6266 50.9241 29.1667 53.0379 29.1667H57.959L57.959 43.5644C57.959 45.9221 59.6726 47.8333 61.7865 47.8333C63.9003 47.8333 65.614 45.9221 65.614 43.5644L65.614 29.1667H70.535C72.6489 29.1667 74.3625 27.6266 74.3625 25.2689C74.3625 22.9113 72.6489 21 70.535 21H61.7865H53.0379Z" fill="white"/>
<path fill-rule="evenodd" clip-rule="evenodd" d="M33.1663 33.1326L36.2375 25.3176C36.2018 23.6985 37.0365 22.1365 38.4673 21.428C38.815 21.2558 39.174 21.1459 39.5337 21.094C40.2975 20.908 41.1249 20.9926 41.8994 21.396C43.2323 22.09 44.0526 23.5424 44.1291 25.0783L51.0607 41.9079C51.9222 43.9995 51.0742 46.4608 49.1667 47.4054C47.2591 48.35 45.0144 47.4202 44.1529 45.3286L40.2955 35.9629L36.587 45.3994C35.9726 46.9627 34.6032 47.8685 33.1663 47.8323C31.7294 47.8685 30.36 46.9627 29.7456 45.3994L25.6862 35.07L21.461 45.3286C20.5995 47.4202 18.3547 48.35 16.4472 47.4054C14.5397 46.4608 13.6917 43.9995 14.5531 41.9079L22.1328 23.5048C22.7317 22.0507 23.9993 21.1581 25.3572 21.0665C26.9923 20.7349 28.6585 21.6622 29.3547 23.4339L33.1663 33.1326Z" fill="white"/>
<path d="M176.9 32.6358V30.0725C177.411 30.0725 177.81 29.8477 178.097 29.398C178.394 28.937 178.614 28.0995 178.757 26.8853L179.371 21.1854H187V32.4334H184.36V23.715H181.75L181.382 27.1045C181.259 28.2063 181.065 29.1338 180.799 29.887C180.533 30.629 180.195 31.1967 179.785 31.5902C179.376 31.9725 178.941 32.2423 178.481 32.3997C178.03 32.5571 177.503 32.6358 176.9 32.6358Z" fill="white"/>
</svg>
