<svg width="187" height="70" viewBox="0 0 187 70" fill="none" xmlns="http://www.w3.org/2000/svg">
<path fill-rule="evenodd" clip-rule="evenodd" d="M32.9684 8.16667C19.009 8.16667 7.69263 20.1804 7.69263 35C7.69263 49.8196 19.009 61.8333 32.9684 61.8333C39.5728 61.8333 45.5781 59.1496 50.0833 54.746C51.646 53.2185 54.0793 53.3251 55.5182 54.9842C56.957 56.6433 56.8566 59.2265 55.2938 60.754C49.4244 66.491 41.578 70 32.9684 70C14.7605 70 0 54.33 0 35C0 15.67 14.7605 0 32.9684 0C41.578 0 49.4244 3.50898 55.2938 9.24601C56.8566 10.7735 56.957 13.3567 55.5182 15.0158C54.0793 16.6749 51.646 16.7815 50.0833 15.254C45.5781 10.8504 39.5728 8.16667 32.9684 8.16667Z" fill="#3F5870"/>
<path d="M87.1109 32.6358C85.5339 32.6358 84.2215 32.0962 83.1736 31.0169C82.1257 29.9264 81.6017 28.5268 81.6017 26.8179C81.6017 25.0978 82.1206 23.6982 83.1583 22.6189C84.2062 21.5396 85.5237 21 87.1109 21C89.1558 21 90.6361 22.0062 91.5518 24.0186L89.2932 25.199C89.1202 24.7381 88.8303 24.3502 88.4233 24.0354C88.0265 23.7206 87.589 23.5633 87.1109 23.5633C86.2868 23.5633 85.6051 23.878 85.0659 24.5076C84.5369 25.1259 84.2723 25.896 84.2723 26.8179C84.2723 27.7398 84.5369 28.5155 85.0659 29.1451C85.6051 29.7634 86.2868 30.0726 87.1109 30.0726C87.589 30.0726 88.0265 29.9152 88.4233 29.6004C88.8303 29.2856 89.1202 28.8978 89.2932 28.4368L91.5518 29.6173C91.1652 30.4717 90.6056 31.1912 89.8731 31.7758C89.1507 32.3491 88.23 32.6358 87.1109 32.6358Z" fill="#3F5870"/>
<path d="M102.164 32.4335H99.5391V23.715H95.3118V32.4335H92.6869V21.1855H102.164V32.4335Z" fill="#3F5870"/>
<path d="M111.461 32.4335H103.998V21.1855H111.461V23.715H106.623V25.4688H111.354V27.9984H106.623V29.9039H111.461V32.4335Z" fill="#3F5870"/>
<path d="M120.738 34.5077V32.4335H112.985V21.1855H115.61V29.9039H119.837V21.1855H122.462V29.9039H123.378V34.5077H120.738Z" fill="#3F5870"/>
<path d="M136.058 32.4335H133.433V25.1147L130.854 32.4335H129.694L127.13 25.1147V32.4335H124.505V21.1855H128.153L130.274 27.2901L132.41 21.1855H136.058V32.4335Z" fill="#3F5870"/>
<path d="M145.351 32.4335H137.888V21.1855H145.351V23.715H140.513V25.4688H145.244V27.9984H140.513V29.9039H145.351V32.4335Z" fill="#3F5870"/>
<path d="M151.774 32.4335H149.149V23.715H146.295V21.1855H154.612V23.715H151.774V32.4335Z" fill="#3F5870"/>
<path d="M164.812 32.4335H161.836L161.332 30.8146H157.319L156.815 32.4335H153.839L157.67 21.1855H160.966L164.812 32.4335ZM160.615 28.285L159.318 24.0523L158.021 28.285H160.615Z" fill="#3F5870"/>
<path d="M164.999 32.6358V30.0726C165.508 30.0726 165.904 29.8477 166.189 29.398C166.484 28.9371 166.703 28.0995 166.846 26.8854L167.456 21.1855H175.041V32.4335H172.416V23.715H169.821L169.455 27.1046C169.333 28.2063 169.14 29.1338 168.875 29.8871C168.611 30.6291 168.275 31.1968 167.868 31.5903C167.461 31.9725 167.029 32.2423 166.571 32.3997C166.123 32.5571 165.599 32.6358 164.999 32.6358Z" fill="#3F5870"/>
<path d="M87.0193 48.0925H84.3944V39.374H81.5406V36.8445H89.8578V39.374H87.0193V48.0925Z" fill="#3F5870"/>
<path d="M93.7321 48.0925H91.1072V36.8445H96.2043C97.3031 36.8445 98.1679 37.2042 98.7987 37.9237C99.4295 38.632 99.7449 39.5202 99.7449 40.5882C99.7449 41.645 99.4295 42.5331 98.7987 43.2526C98.1679 43.9609 97.3031 44.315 96.2043 44.315H93.7321V48.0925ZM95.8533 41.7855C96.2094 41.7855 96.4994 41.6787 96.7232 41.4651C96.9572 41.2515 97.0742 40.9592 97.0742 40.5882C97.0742 40.2059 96.9572 39.908 96.7232 39.6944C96.4994 39.4808 96.2094 39.374 95.8533 39.374H93.7321V41.7855H95.8533Z" fill="#3F5870"/>
<path d="M108.376 48.0925H100.914V36.8445H108.376V39.374H103.538V41.1278H108.269V43.6573H103.538V45.5629H108.376V48.0925Z" fill="#3F5870"/>
<path d="M112.433 48.0925H109.9V36.8445H112.525V43.4718L116.645 36.8445H119.362V48.0925H116.722V41.1447L112.433 48.0925ZM117.302 34.8883C116.64 35.8776 115.75 36.3723 114.631 36.3723C113.522 36.3723 112.627 35.8776 111.945 34.8883L112.952 33.9777C113.39 34.6297 113.949 34.9558 114.631 34.9558C115.343 34.9558 115.898 34.6297 116.294 33.9777L117.302 34.8883Z" fill="#3F5870"/>
<path d="M120.632 50.1667V45.7316C121.171 45.6416 121.578 45.3887 121.853 44.9727C122.138 44.5567 122.346 43.7473 122.479 42.5444L123.089 36.8445H130.674V45.5629H131.589V50.1667H128.949V48.0925H123.257V50.1667H120.632ZM125.088 42.7636C124.956 43.9553 124.585 44.8884 123.974 45.5629H128.049V39.374H125.455L125.088 42.7636Z" fill="#3F5870"/>
<path d="M176.128 32.6358V30.0725C176.637 30.0725 177.033 29.8477 177.318 29.398C177.613 28.937 177.832 28.0995 177.974 26.8853L178.585 21.1854H186.17V32.4334H183.545V23.715H180.95L180.584 27.1045C180.462 28.2063 180.269 29.1338 180.004 29.887C179.74 30.629 179.404 31.1967 178.997 31.5902C178.59 31.9725 178.158 32.2423 177.7 32.3997C177.252 32.5571 176.728 32.6358 176.128 32.6358Z" fill="#3F5870"/>
<path fill-rule="evenodd" clip-rule="evenodd" d="M52.7297 21C50.6281 21 48.9244 22.9113 48.9244 25.2689C48.9244 27.6266 50.6281 29.1667 52.7297 29.1667H57.6221L57.6221 43.5644C57.6221 45.9221 59.3258 47.8333 61.4273 47.8333C63.5289 47.8333 65.2326 45.9221 65.2326 43.5644L65.2326 29.1667H70.125C72.2266 29.1667 73.9302 27.6266 73.9302 25.2689C73.9302 22.9113 72.2266 21 70.125 21H61.4273H52.7297Z" fill="#3F5870"/>
<path fill-rule="evenodd" clip-rule="evenodd" d="M32.9735 33.1326L36.0269 25.3176C35.9913 23.6985 36.8212 22.1365 38.2437 21.428C38.5894 21.2558 38.9462 21.1459 39.3039 21.094C40.0632 20.908 40.8858 20.9926 41.6559 21.396C42.981 22.09 43.7965 23.5424 43.8726 25.0783L50.7639 41.9079C51.6204 43.9995 50.7773 46.4608 48.8809 47.4054C46.9844 48.35 44.7527 47.4202 43.8963 45.3286L40.0612 35.9629L36.3743 45.3994C35.7635 46.9627 34.402 47.8685 32.9735 47.8323C31.5449 47.8685 30.1835 46.9627 29.5727 45.3994L25.5369 35.07L21.3362 45.3286C20.4797 47.4202 18.248 48.35 16.3516 47.4054C14.4551 46.4608 13.6121 43.9995 14.4685 41.9079L22.0042 23.5048C22.5996 22.0507 23.8597 21.1581 25.2098 21.0665C26.8354 20.7349 28.4919 21.6622 29.1841 23.4339L32.9735 33.1326Z" fill="#3F5870"/>
</svg>
