<svg width="17" height="16" viewBox="0 0 17 16" fill="none" xmlns="http://www.w3.org/2000/svg">
<path fill-rule="evenodd" clip-rule="evenodd" d="M8.50004 10.6667C9.9728 10.6667 11.1667 9.4728 11.1667 8.00004C11.1667 6.52728 9.9728 5.33337 8.50004 5.33337C7.02728 5.33337 5.83337 6.52728 5.83337 8.00004C5.83337 9.4728 7.02728 10.6667 8.50004 10.6667Z" stroke="#FB4726" stroke-width="1.5" stroke-linecap="round" stroke-linejoin="round"/>
<path d="M11.1666 8.00003V8.6667C11.1666 9.77127 12.062 10.6667 13.1666 10.6667C14.2712 10.6667 15.1666 9.77127 15.1666 8.6667V8.00003C15.1664 4.90197 13.032 2.21231 10.015 1.50823C6.99804 0.804151 3.8936 2.27123 2.52212 5.04918C1.15063 7.82713 1.87358 11.1838 4.26703 13.1509C6.66048 15.118 10.0936 15.177 12.5533 13.2934" stroke="#FB4726" stroke-width="2" stroke-linecap="round" stroke-linejoin="round"/>
</svg>
