<svg width="18" height="18" viewBox="0 0 18 18" fill="none" xmlns="http://www.w3.org/2000/svg">
<path fill-rule="evenodd" clip-rule="evenodd" d="M6.33333 16.3333C7.06971 16.3333 7.66667 15.7363 7.66667 15C7.66667 14.2636 7.06971 13.6666 6.33333 13.6666C5.59695 13.6666 5 14.2636 5 15C5 15.7363 5.59695 16.3333 6.33333 16.3333Z" stroke="white" stroke-width="1.5" stroke-linecap="round" stroke-linejoin="round"/>
<path fill-rule="evenodd" clip-rule="evenodd" d="M14.3333 16.3333C15.0697 16.3333 15.6667 15.7363 15.6667 15C15.6667 14.2636 15.0697 13.6666 14.3333 13.6666C13.597 13.6666 13 14.2636 13 15C13 15.7363 13.597 16.3333 14.3333 16.3333Z" stroke="white" stroke-width="1.5" stroke-linecap="round" stroke-linejoin="round"/>
<path d="M4.78008 4.99996H16.3334L15.2134 10.5933C15.0876 11.2268 14.5258 11.679 13.8801 11.6666H6.83341C6.15974 11.6723 5.58764 11.1746 5.50008 10.5066L4.48675 2.82663C4.39983 2.16369 3.83536 1.66764 3.16675 1.66663H1.66675" stroke="white" stroke-width="1.5" stroke-linecap="round" stroke-linejoin="round"/>
</svg>
